<svg width="12" height="10" viewBox="0 0 12 10" fill="none" xmlns="http://www.w3.org/2000/svg">
<path d="M11.1739 1.9831C10.7549 2.16933 10.3126 2.28573 9.84702 2.35557C10.3126 2.07622 10.6851 1.63392 10.848 1.0985C10.4057 1.35457 9.91686 1.5408 9.38144 1.6572C8.96242 1.2149 8.35717 0.935547 7.70535 0.935547C6.44829 0.935547 5.42401 1.95982 5.42401 3.21689C5.42401 3.40312 5.44729 3.56608 5.49385 3.72903C3.60825 3.63591 1.90888 2.72803 0.768207 1.33129C0.581975 1.68048 0.46558 2.05294 0.46558 2.47196C0.46558 3.26345 0.861323 3.96182 1.48986 4.38084C1.11739 4.35756 0.768207 4.26445 0.442301 4.10149V4.12477C0.442301 5.24216 1.23379 6.17333 2.28134 6.38284C2.09511 6.42939 1.8856 6.45267 1.67609 6.45267C1.53641 6.45267 1.37346 6.42939 1.23379 6.40612C1.53641 7.314 2.37446 7.98909 3.37546 7.98909C2.58397 8.59434 1.60625 8.96681 0.535417 8.96681C0.349185 8.96681 0.162953 8.96681 0 8.94353C1.02428 9.59534 2.21151 9.96781 3.51513 9.96781C7.72863 9.96781 10.0333 6.47595 10.0333 3.44968C10.0333 3.35656 10.0333 3.24017 10.0333 3.14705C10.4756 2.84443 10.8713 2.44868 11.1739 1.9831Z" fill="#18181B"/>
</svg>
