<svg width="14" height="14" viewBox="0 0 14 14" fill="none" xmlns="http://www.w3.org/2000/svg">
<path d="M6.96755 1.44721C8.77626 1.44721 8.99046 1.45398 9.70497 1.48656C10.1346 1.49182 10.5601 1.5707 10.963 1.71979C11.2552 1.83248 11.5206 2.00511 11.7421 2.22656C11.9635 2.44802 12.1362 2.71339 12.2488 3.00559C12.3979 3.40853 12.4768 3.83406 12.4821 4.26366C12.5143 4.97817 12.5214 5.19237 12.5214 7.00108C12.5214 8.80979 12.5147 9.02398 12.4821 9.7385C12.4768 10.1681 12.3979 10.5936 12.2488 10.9966C12.1362 11.2888 11.9635 11.5541 11.7421 11.7756C11.5206 11.997 11.2552 12.1697 10.963 12.2824C10.5601 12.4315 10.1346 12.5103 9.70497 12.5156C8.99078 12.5479 8.77659 12.5549 6.96755 12.5549C5.15852 12.5549 4.94433 12.5482 4.23013 12.5156C3.80053 12.5103 3.37501 12.4315 2.97207 12.2824C2.67986 12.1697 2.41449 11.997 2.19304 11.7756C1.97158 11.5541 1.79895 11.2888 1.68626 10.9966C1.53718 10.5936 1.45829 10.1681 1.45304 9.7385C1.42078 9.02398 1.41368 8.80979 1.41368 7.00108C1.41368 5.19237 1.42046 4.97817 1.45304 4.26366C1.45829 3.83406 1.53718 3.40853 1.68626 3.00559C1.79895 2.71339 1.97158 2.44802 2.19304 2.22656C2.41449 2.00511 2.67986 1.83248 2.97207 1.71979C3.37501 1.5707 3.80053 1.49182 4.23013 1.48656C4.94465 1.4543 5.15884 1.44721 6.96755 1.44721ZM6.96755 0.226562C5.12884 0.226562 4.89723 0.234304 4.17465 0.267208C3.61241 0.278391 3.05613 0.384847 2.52949 0.582046C2.07771 0.752261 1.66852 1.019 1.33046 1.36366C0.985488 1.70184 0.718519 2.11127 0.548198 2.56334C0.350998 3.08998 0.244543 3.64625 0.233359 4.2085C0.201101 4.93043 0.193359 5.16205 0.193359 7.00076C0.193359 8.83946 0.201101 9.07108 0.234005 9.79366C0.245188 10.3559 0.351643 10.9122 0.548843 11.4388C0.718975 11.8908 0.985721 12.3002 1.33046 12.6385C1.66871 12.9832 2.07813 13.25 2.53013 13.4201C3.05678 13.6173 3.61305 13.7238 4.1753 13.7349C4.89788 13.7672 5.12852 13.7756 6.9682 13.7756C8.80788 13.7756 9.03852 13.7679 9.7611 13.7349C10.3233 13.7238 10.8796 13.6173 11.4063 13.4201C11.8561 13.2457 12.2646 12.9794 12.6057 12.6381C12.9467 12.2968 13.2128 11.8882 13.3869 11.4382C13.5841 10.9115 13.6906 10.3553 13.7017 9.79301C13.734 9.07108 13.7417 8.83946 13.7417 7.00076C13.7417 5.16205 13.734 4.93043 13.7011 4.20785C13.6899 3.64561 13.5835 3.08934 13.3863 2.56269C13.2161 2.11068 12.9494 1.70126 12.6046 1.36301C12.2664 1.01828 11.857 0.751533 11.405 0.581401C10.8783 0.384201 10.3221 0.277746 9.75981 0.266563C9.03788 0.234304 8.80626 0.226562 6.96755 0.226562Z" fill="#18181B"/>
<path d="M6.96699 3.52344C6.27897 3.52344 5.6064 3.72746 5.03432 4.10971C4.46225 4.49195 4.01638 5.03525 3.75308 5.6709C3.48979 6.30655 3.4209 7.00601 3.55513 7.68081C3.68935 8.35561 4.02067 8.97546 4.50717 9.46197C4.99368 9.94847 5.61353 10.2798 6.28833 10.414C6.96313 10.5482 7.66259 10.4794 8.29824 10.2161C8.93389 9.95276 9.47719 9.50689 9.85943 8.93481C10.2417 8.36274 10.4457 7.69017 10.4457 7.00215C10.4457 6.07954 10.0792 5.19471 9.42681 4.54233C8.77443 3.88994 7.8896 3.52344 6.96699 3.52344ZM6.96699 9.26021C6.52039 9.26021 6.08382 9.12778 5.71248 8.87966C5.34114 8.63154 5.05172 8.27888 4.88081 7.86627C4.70991 7.45366 4.66519 6.99964 4.75232 6.56162C4.83944 6.1236 5.0545 5.72125 5.3703 5.40545C5.6861 5.08966 6.08844 4.8746 6.52647 4.78747C6.96449 4.70034 7.41851 4.74506 7.83112 4.91597C8.24372 5.08687 8.59639 5.3763 8.8445 5.74763C9.09262 6.11897 9.22506 6.55554 9.22506 7.00215C9.22506 7.60102 8.98715 8.17537 8.56368 8.59884C8.14022 9.02231 7.56587 9.26021 6.96699 9.26021Z" fill="#18181B"/>
<path d="M10.5824 4.19807C11.0314 4.19807 11.3953 3.83412 11.3953 3.38517C11.3953 2.93621 11.0314 2.57227 10.5824 2.57227C10.1335 2.57227 9.76953 2.93621 9.76953 3.38517C9.76953 3.83412 10.1335 4.19807 10.5824 4.19807Z" fill="#18181B"/>
</svg>
