<svg width="14" height="13" viewBox="0 0 14 13" fill="none" xmlns="http://www.w3.org/2000/svg">
<path fill-rule="evenodd" clip-rule="evenodd" d="M6.57365 0.226562C2.9827 0.226562 0.09375 3.11552 0.09375 6.70646C0.09375 9.56841 1.95672 11.9984 4.52168 12.8624C4.84567 12.9164 4.95367 12.7274 4.95367 12.5384C4.95367 12.3764 4.95367 11.9714 4.95367 11.4314C3.1447 11.8364 2.76671 10.5674 2.76671 10.5674C2.46971 9.81141 2.03772 9.62241 2.03772 9.62241C1.44373 9.21742 2.09172 9.21742 2.09172 9.21742C2.73971 9.27142 3.0907 9.89241 3.0907 9.89241C3.65769 10.8914 4.60268 10.5944 4.98067 10.4324C5.03467 10.0004 5.19667 9.73041 5.38566 9.56841C3.95469 9.40642 2.44271 8.83942 2.44271 6.35546C2.44271 5.65347 2.68571 5.05948 3.1177 4.62749C3.0637 4.46549 2.82071 3.8175 3.1717 2.89952C3.1717 2.89952 3.71169 2.73752 4.95367 3.57451C5.46666 3.43951 6.03365 3.35851 6.57365 3.35851C7.11364 3.35851 7.68063 3.43951 8.19362 3.57451C9.4356 2.73752 9.97559 2.89952 9.97559 2.89952C10.3266 3.79051 10.1106 4.43849 10.0296 4.62749C10.4346 5.08648 10.7046 5.65347 10.7046 6.35546C10.7046 8.83942 9.1926 9.37942 7.73463 9.54141C7.97762 9.73041 8.16662 10.1354 8.16662 10.7294C8.16662 11.5934 8.16662 12.2954 8.16662 12.5114C8.16662 12.6734 8.27462 12.8894 8.62561 12.8354C11.1906 11.9984 13.0535 9.56841 13.0535 6.70646C13.0535 3.11552 10.1646 0.226562 6.57365 0.226562Z" fill="#18181B"/>
</svg>
