<svg width="26" height="20" viewBox="0 0 26 20" fill="none" xmlns="http://www.w3.org/2000/svg">
<path d="M7.85742 11.2859H18.1431" stroke="#12141D" stroke-width="1.5" stroke-linecap="round" stroke-linejoin="round"/>
<path d="M4.42773 7V4.42857C4.42773 3.51926 4.78896 2.64719 5.43194 2.00421C6.07492 1.36122 6.94699 1 7.85631 1H18.142C19.0513 1 19.9234 1.36122 20.5664 2.00421C21.2094 2.64719 21.5706 3.51926 21.5706 4.42857V7" stroke="#12141D" stroke-width="1.5" stroke-linecap="round" stroke-linejoin="round"/>
<path d="M7.85714 14.7143V10.4286C7.85714 9.75047 7.65606 9.08759 7.27932 8.52376C6.90259 7.95994 6.36712 7.52049 5.74063 7.26099C5.11414 7.00149 4.42477 6.93359 3.75969 7.06588C3.09461 7.19817 2.4837 7.52471 2.00421 8.00421C1.52471 8.4837 1.19817 9.09461 1.06588 9.75969C0.933588 10.4248 1.00149 11.1141 1.26099 11.7406C1.52049 12.3671 1.95993 12.9026 2.52376 13.2793C3.08759 13.6561 3.75047 13.8571 4.42857 13.8571V18.1429C4.42857 18.3702 4.51888 18.5882 4.67962 18.7489C4.84037 18.9097 5.05839 19 5.28572 19H20.7143C20.9416 19 21.1596 18.9097 21.3204 18.7489C21.4811 18.5882 21.5714 18.3702 21.5714 18.1429V13.8571C22.2495 13.8571 22.9124 13.6561 23.4762 13.2793C24.0401 12.9026 24.4795 12.3671 24.739 11.7406C24.9985 11.1141 25.0664 10.4248 24.9341 9.75969C24.8018 9.09461 24.4753 8.4837 23.9958 8.00421C23.5163 7.52471 22.9054 7.19817 22.2403 7.06588C21.5752 6.93359 20.8859 7.00149 20.2594 7.26099C19.6329 7.52049 19.0974 7.95994 18.7207 8.52376C18.3439 9.08759 18.1429 9.75047 18.1429 10.4286V14.7143" stroke="#12141D" stroke-width="1.5" stroke-linecap="round" stroke-linejoin="round"/>
</svg>
