<svg width="78" height="204" viewBox="0 0 78 204" fill="none" xmlns="http://www.w3.org/2000/svg">
<circle cx="3" cy="201" r="3" transform="rotate(-90 3 201)" fill="#FFC947"/>
<circle cx="3" cy="183" r="3" transform="rotate(-90 3 183)" fill="#FFC947"/>
<circle cx="3" cy="165" r="3" transform="rotate(-90 3 165)" fill="#FFC947"/>
<circle cx="3" cy="147" r="3" transform="rotate(-90 3 147)" fill="#FFC947"/>
<circle cx="3" cy="129" r="3" transform="rotate(-90 3 129)" fill="#FFC947"/>
<circle cx="3" cy="111" r="3" transform="rotate(-90 3 111)" fill="#FFC947"/>
<circle cx="3" cy="93" r="3" transform="rotate(-90 3 93)" fill="#FFC947"/>
<circle cx="3" cy="75" r="3" transform="rotate(-90 3 75)" fill="#FFC947"/>
<circle cx="3" cy="57" r="3" transform="rotate(-90 3 57)" fill="#FFC947"/>
<circle cx="3" cy="39" r="3" transform="rotate(-90 3 39)" fill="#FFC947"/>
<circle cx="3" cy="21" r="3" transform="rotate(-90 3 21)" fill="#FFC947"/>
<circle cx="3" cy="3" r="3" transform="rotate(-90 3 3)" fill="#FFC947"/>
<circle cx="21" cy="201" r="3" transform="rotate(-90 21 201)" fill="#FFC947"/>
<circle cx="21" cy="183" r="3" transform="rotate(-90 21 183)" fill="#FFC947"/>
<circle cx="21" cy="165" r="3" transform="rotate(-90 21 165)" fill="#FFC947"/>
<circle cx="21" cy="147" r="3" transform="rotate(-90 21 147)" fill="#FFC947"/>
<circle cx="21" cy="129" r="3" transform="rotate(-90 21 129)" fill="#FFC947"/>
<circle cx="21" cy="111" r="3" transform="rotate(-90 21 111)" fill="#FFC947"/>
<circle cx="21" cy="93" r="3" transform="rotate(-90 21 93)" fill="#FFC947"/>
<circle cx="21" cy="75" r="3" transform="rotate(-90 21 75)" fill="#FFC947"/>
<circle cx="21" cy="57" r="3" transform="rotate(-90 21 57)" fill="#FFC947"/>
<circle cx="21" cy="39" r="3" transform="rotate(-90 21 39)" fill="#FFC947"/>
<circle cx="21" cy="21" r="3" transform="rotate(-90 21 21)" fill="#FFC947"/>
<circle cx="21" cy="3" r="3" transform="rotate(-90 21 3)" fill="#FFC947"/>
<circle cx="39" cy="201" r="3" transform="rotate(-90 39 201)" fill="#FFC947"/>
<circle cx="39" cy="183" r="3" transform="rotate(-90 39 183)" fill="#FFC947"/>
<circle cx="39" cy="165" r="3" transform="rotate(-90 39 165)" fill="#FFC947"/>
<circle cx="39" cy="147" r="3" transform="rotate(-90 39 147)" fill="#FFC947"/>
<circle cx="39" cy="129" r="3" transform="rotate(-90 39 129)" fill="#FFC947"/>
<circle cx="39" cy="111" r="3" transform="rotate(-90 39 111)" fill="#FFC947"/>
<circle cx="39" cy="93" r="3" transform="rotate(-90 39 93)" fill="#FFC947"/>
<circle cx="39" cy="75" r="3" transform="rotate(-90 39 75)" fill="#FFC947"/>
<circle cx="39" cy="57" r="3" transform="rotate(-90 39 57)" fill="#FFC947"/>
<circle cx="39" cy="39" r="3" transform="rotate(-90 39 39)" fill="#FFC947"/>
<circle cx="39" cy="21" r="3" transform="rotate(-90 39 21)" fill="#FFC947"/>
<circle cx="39" cy="3" r="3" transform="rotate(-90 39 3)" fill="#FFC947"/>
<circle cx="57" cy="201" r="3" transform="rotate(-90 57 201)" fill="#FFC947"/>
<circle cx="57" cy="183" r="3" transform="rotate(-90 57 183)" fill="#FFC947"/>
<circle cx="57" cy="165" r="3" transform="rotate(-90 57 165)" fill="#FFC947"/>
<circle cx="57" cy="147" r="3" transform="rotate(-90 57 147)" fill="#FFC947"/>
<circle cx="57" cy="129" r="3" transform="rotate(-90 57 129)" fill="#FFC947"/>
<circle cx="57" cy="111" r="3" transform="rotate(-90 57 111)" fill="#FFC947"/>
<circle cx="57" cy="93" r="3" transform="rotate(-90 57 93)" fill="#FFC947"/>
<circle cx="57" cy="75" r="3" transform="rotate(-90 57 75)" fill="#FFC947"/>
<circle cx="57" cy="57" r="3" transform="rotate(-90 57 57)" fill="#FFC947"/>
<circle cx="57" cy="39" r="3" transform="rotate(-90 57 39)" fill="#FFC947"/>
<circle cx="57" cy="21" r="3" transform="rotate(-90 57 21)" fill="#FFC947"/>
<circle cx="57" cy="3" r="3" transform="rotate(-90 57 3)" fill="#FFC947"/>
<circle cx="75" cy="201" r="3" transform="rotate(-90 75 201)" fill="#FFC947"/>
<circle cx="75" cy="183" r="3" transform="rotate(-90 75 183)" fill="#FFC947"/>
<circle cx="75" cy="165" r="3" transform="rotate(-90 75 165)" fill="#FFC947"/>
<circle cx="75" cy="147" r="3" transform="rotate(-90 75 147)" fill="#FFC947"/>
<circle cx="75" cy="129" r="3" transform="rotate(-90 75 129)" fill="#FFC947"/>
<circle cx="75" cy="111" r="3" transform="rotate(-90 75 111)" fill="#FFC947"/>
<circle cx="75" cy="93" r="3" transform="rotate(-90 75 93)" fill="#FFC947"/>
<circle cx="75" cy="75" r="3" transform="rotate(-90 75 75)" fill="#FFC947"/>
<circle cx="75" cy="57" r="3" transform="rotate(-90 75 57)" fill="#FFC947"/>
<circle cx="75" cy="39" r="3" transform="rotate(-90 75 39)" fill="#FFC947"/>
<circle cx="75" cy="21" r="3" transform="rotate(-90 75 21)" fill="#FFC947"/>
<circle cx="75" cy="3" r="3" transform="rotate(-90 75 3)" fill="#FFC947"/>
</svg>
