<svg width="24" height="22" viewBox="0 0 24 22" fill="none" xmlns="http://www.w3.org/2000/svg">
<path d="M22.1053 0H1.89474C0.821053 0 0 0.821053 0 1.89474V14.5263C0 15.6 0.821053 16.4211 1.89474 16.4211H9.47368V20.2105H6C5.62105 20.2105 5.36842 20.4632 5.36842 20.8421C5.36842 21.2211 5.62105 21.4737 6 21.4737H10.1053H13.8947H18C18.3789 21.4737 18.6316 21.2211 18.6316 20.8421C18.6316 20.4632 18.3789 20.2105 18 20.2105H14.5263V16.4211H22.1053C23.1789 16.4211 24 15.6 24 14.5263V1.89474C24 0.821053 23.1789 0 22.1053 0ZM1.26316 1.89474C1.26316 1.51579 1.51579 1.26316 1.89474 1.26316H22.1053C22.4842 1.26316 22.7368 1.51579 22.7368 1.89474V11.3684H1.26316V1.89474ZM13.2632 20.2105H10.7368V16.4211H13.2632V20.2105ZM22.7368 14.5263C22.7368 14.9053 22.4842 15.1579 22.1053 15.1579H13.8947H10.1053H1.89474C1.51579 15.1579 1.26316 14.9053 1.26316 14.5263V12.6316H22.7368V14.5263Z" fill="#12141D"/>
<path d="M12.0001 15.7893C12.5233 15.7893 12.9475 15.3651 12.9475 14.8419C12.9475 14.3187 12.5233 13.8945 12.0001 13.8945C11.4769 13.8945 11.0527 14.3187 11.0527 14.8419C11.0527 15.3651 11.4769 15.7893 12.0001 15.7893Z" fill="#FFC947"/>
</svg>
